<svg width="590" height="555" viewBox="0 0 590 555" fill="none" xmlns="http://www.w3.org/2000/svg">
<path d="M0 114C0 51.0395 51.0395 0 114 0H476C538.96 0 590 51.0395 590 114V441C590 503.96 538.96 555 476 555H114C51.0395 555 0 503.96 0 441V114Z" fill="#0056FF"/>
<path d="M375.64 435C401.506 435 422.44 427.267 438.44 411.8C454.173 396.067 462.04 374.467 462.04 347V295C462.04 267.533 454.173 246.067 438.44 230.6C422.44 214.867 401.506 207 375.64 207C358.306 207 343.24 210.467 330.44 217.4C317.373 224.333 307.24 234.067 300.04 246.6C292.84 259.133 289.24 273.933 289.24 291V330.2H426.84V351C426.84 367.267 422.173 380.2 412.84 389.8C403.506 399.133 391.106 403.8 375.64 403.8C362.306 403.8 351.373 401.267 342.84 396.2C334.04 390.867 328.706 383.8 326.84 375H290.84C293.24 393.4 302.173 408.067 317.64 419C333.106 429.667 352.44 435 375.64 435ZM426.84 302.2H324.44V291C324.44 273.667 328.973 260.333 338.04 251C346.84 241.4 359.373 236.6 375.64 236.6C391.906 236.6 404.573 241.4 413.64 251C422.44 260.333 426.84 273.667 426.84 291V302.2Z" fill="white" fill-opacity="0.5"/>
<path d="M241.054 364C215.187 364 194.254 356.267 178.254 340.8C162.521 325.067 154.654 303.467 154.654 276V224C154.654 196.533 162.521 175.067 178.254 159.6C194.254 143.867 215.187 136 241.054 136C258.387 136 273.454 139.467 286.254 146.4C299.321 153.333 309.454 163.067 316.654 175.6C323.854 188.133 327.454 202.933 327.454 220V259.2H189.854V280C189.854 296.267 194.521 309.2 203.854 318.8C213.187 328.133 225.587 332.8 241.054 332.8C254.387 332.8 265.321 330.267 273.854 325.2C282.654 319.867 287.987 312.8 289.854 304H325.854C323.454 322.4 314.521 337.067 299.054 348C283.587 358.667 264.254 364 241.054 364ZM189.854 231.2H292.254V220C292.254 202.667 287.721 189.333 278.654 180C269.854 170.4 257.321 165.6 241.054 165.6C224.787 165.6 212.121 170.4 203.054 180C194.254 189.333 189.854 202.667 189.854 220V231.2Z" fill="white"/>
</svg>
